<?xml version="1.0" encoding="UTF-8"?>
<svg width="169px" height="22px" viewBox="0 0 169 22" version="1.1" xmlns="http://www.w3.org/2000/svg" xmlns:xlink="http://www.w3.org/1999/xlink">
    <title>Air_Canada</title>
    <defs>
        <filter color-interpolation-filters="auto" id="filter-1">
            <feColorMatrix in="SourceGraphic" type="matrix" values="0 0 0 0 0.090196 0 0 0 0 0.070588 0 0 0 0 0.121569 0 0 0 1.000000 0"></feColorMatrix>
        </filter>
    </defs>
    <g id="UI-elements" stroke="none" stroke-width="1" fill="none" fill-rule="evenodd">
        <g id="Logos" transform="translate(-320.000000, -4248.000000)" filter="url(#filter-1)">
            <g transform="translate(320.000000, 3939.000000)">
                <g id="Air_Canada" transform="translate(0.000000, 309.000000)" fill="#000000" fill-rule="nonzero">
                    <path d="M158.450565,15.6340426 C158.450565,14.9319149 158.817491,14.7914894 159.459611,15.1659574 C160.697985,15.8680851 161.93636,16.5702128 161.93636,16.5702128 C161.982226,16.1957447 162.303286,15.8212766 163.037137,16.0085106 C163.725123,16.1489362 164.50484,16.3361702 164.50484,16.3361702 C164.50484,16.3361702 164.092049,15.4 163.908586,14.9787234 C163.587526,14.2297872 163.908586,13.8553191 164.229646,13.7617021 C164.229646,13.7617021 163.770989,13.4340426 163.449929,13.2 C162.807809,12.7319149 162.945406,12.2638298 163.587526,11.9829787 C164.458975,11.6085106 165.559752,11.093617 165.559752,11.093617 C165.192826,10.906383 164.8259,10.2978723 165.284558,9.64255319 C165.743215,8.98723404 166.385335,8.05106383 166.385335,8.05106383 C166.385335,8.05106383 165.192826,8.05106383 164.413109,8.05106383 C163.679257,8.05106383 163.54166,7.44255319 163.54166,7.06808511 C163.54166,7.06808511 162.395017,7.9106383 161.523568,8.47234043 C160.835582,8.94042553 160.193462,8.47234043 160.285194,7.67659574 C160.468657,6.36595745 160.606254,4.96170213 160.606254,4.96170213 C160.193462,5.24255319 159.413745,5.24255319 159.092685,4.54042553 C158.588162,3.46382979 158.037773,2.2 158.037773,2.2 C158.037773,2.2 157.487385,3.46382979 156.982862,4.54042553 C156.661802,5.24255319 155.92795,5.2893617 155.469293,4.96170213 C155.469293,4.96170213 155.60689,6.41276596 155.790353,7.67659574 C155.882084,8.51914894 155.239964,8.98723404 154.551979,8.47234043 C153.726395,7.9106383 152.533887,7.06808511 152.533887,7.06808511 C152.533887,7.4893617 152.350424,8.05106383 151.662438,8.05106383 C150.882721,8.05106383 149.690212,8.05106383 149.690212,8.05106383 C149.690212,8.05106383 150.378198,8.98723404 150.790989,9.64255319 C151.249646,10.2978723 150.836855,10.906383 150.515795,11.093617 C150.515795,11.093617 151.616572,11.6085106 152.488021,11.9829787 C153.130141,12.2638298 153.267738,12.7319149 152.625618,13.2 C152.304558,13.4340426 151.845901,13.7617021 151.845901,13.7617021 C152.166961,13.8553191 152.488021,14.2297872 152.166961,14.9787234 C151.983498,15.4 151.570707,16.3361702 151.570707,16.3361702 C151.570707,16.3361702 152.350424,16.1489362 153.03841,16.0085106 C153.772261,15.8212766 154.093321,16.1957447 154.139187,16.5702128 C154.139187,16.5702128 155.423427,15.8680851 156.615936,15.1659574 C157.258056,14.7914894 157.624982,14.9319149 157.624982,15.6340426 C157.624982,16.1957447 157.624982,17.3659574 157.624982,17.3659574 C157.624982,18.3957447 157.441519,19.4723404 157.074593,20.0808511 C152.39629,19.5659574 148.497703,15.7276596 148.497703,10.6723404 C148.497703,5.47659574 152.763215,1.26382979 157.991908,1.26382979 C163.2206,1.26382979 167.486112,5.47659574 167.486112,10.6723404 C167.486112,15.5404255 163.770989,19.5191489 159.046819,20.0340426 C159.046819,20.2212766 159.046819,21.0638298 159.046819,21.2978723 C164.642437,20.7829787 168.999681,16.1957447 168.999681,10.6723404 C169.045547,4.77446809 164.137915,0 158.037773,0 C151.983498,0 147.03,4.77446809 147.03,10.6723404 C147.03,15.8680851 150.836855,20.1744681 155.882084,21.1574468 C156.753533,21.3446809 157.303922,21.4382979 157.716713,22 C158.267102,20.9702128 158.404699,18.8638298 158.404699,17.6468085 C158.450565,17.693617 158.450565,16.1957447 158.450565,15.6340426 Z" id="Path"></path>
                    <path d="M25.1363618,15.7096005 L25.1363618,4.50626118 L30.7170092,4.50626118 C33.6714697,4.50626118 35.0314594,5.74597496 35.1252518,7.307096 C35.172148,7.99582588 34.9845632,8.73047108 34.468705,9.28145498 C33.9528469,9.83243888 33.7183659,10.0620155 32.7804419,10.4752534 L37.0010997,15.7096005 L33.8590545,15.7096005 L30.1542549,11.0721527 L27.6218602,11.0721527 L27.6218602,15.7096005 L25.1363618,15.7096005 Z M27.6218602,9.60286225 L28.747369,9.60286225 C31.842518,9.60286225 32.4521686,9.09779368 32.4521686,7.62850328 C32.4521686,6.20512821 31.0921788,5.97555158 29.0756423,5.97555158 L27.574964,5.97555158 L27.574964,9.60286225 L27.6218602,9.60286225 Z M0,15.7096005 L5.01789311,4.50626118 L8.06614594,4.50626118 L12.9902467,15.7096005 L9.89509764,15.7096005 L8.58200411,12.7251044 L3.28273381,12.7251044 L1.92274409,15.7096005 L0,15.7096005 Z M3.93928058,11.255814 L7.92545735,11.255814 L5.95581706,6.80202743 L3.93928058,11.255814 Z M16.5543577,15.7096005 L16.5543577,4.50626118 L19.2274409,4.50626118 L19.2274409,15.7096005 L16.5543577,15.7096005 Z M56.1816444,15.3422779 C54.9154471,15.8473465 53.3209764,16.0769231 51.4451285,16.0769231 C49.194111,16.0769231 47.4120555,15.5259392 46.1458582,14.515802 C44.8796608,13.4597496 44.2700103,11.9904592 44.2700103,10.1538462 C44.2700103,8.2254025 44.926557,6.80202743 46.1927544,5.74597496 C47.4589517,4.73583781 49.2879034,4.23076923 51.6796095,4.23076923 C53.1802878,4.23076923 54.6809661,4.36851521 56.1816444,4.68992248 L56.1816444,6.52653548 C54.4933813,6.02146691 52.8989106,5.79189028 51.7734018,5.79189028 C50.3196197,5.79189028 49.194111,6.15921288 48.3968756,6.89385808 C47.5996403,7.62850328 47.2244707,8.73047108 47.1775745,10.1079308 C47.1775745,11.4853906 47.5996403,12.5414431 48.4437718,13.3220036 C49.2879034,14.1025641 50.4603083,14.4698867 52.0078828,14.4698867 C53.3678726,14.4698867 54.8685509,14.1943948 56.2285406,13.6434109 L56.1816444,15.3422779 Z M59.4643782,15.7096005 L64.4822713,4.50626118 L67.5305242,4.50626118 L72.4546249,15.7096005 L69.3594758,15.7096005 L68.0463823,12.7251044 L62.747112,12.7251044 L61.3871223,15.7096005 L59.4643782,15.7096005 Z M63.4036588,11.255814 L67.3898356,11.255814 L65.4201953,6.80202743 L63.4036588,11.255814 Z M92.5261973,15.7096005 L97.5440904,4.55217651 L100.592343,4.55217651 L105.516444,15.7096005 L102.421295,15.7096005 L101.108201,12.7251044 L95.8089311,12.7251044 L94.4489414,15.7096005 L92.5261973,15.7096005 Z M96.4654779,11.255814 L100.451655,11.255814 L98.4820144,6.80202743 L96.4654779,11.255814 Z M123.899753,15.7096005 L128.917646,4.50626118 L131.965899,4.50626118 L136.89,15.7096005 L133.794851,15.7096005 L132.481757,12.7251044 L127.182487,12.7251044 L125.822497,15.7096005 L123.899753,15.7096005 Z M127.839034,11.255814 L131.825211,11.255814 L129.85557,6.80202743 L127.839034,11.255814 Z M76.2532169,15.7096005 L76.2532169,4.50626118 L79.3483659,4.50626118 L86.5234841,12.4955277 L86.5234841,4.50626118 L88.6807091,4.50626118 L88.6807091,15.7096005 L85.8669373,15.7096005 L78.4104419,7.35301133 L78.4104419,15.7096005 L76.2532169,15.7096005 Z M109.26814,15.7096005 L109.26814,4.50626118 L114.801891,4.50626118 C116.771531,4.50626118 118.319106,4.96541443 119.350822,5.92963626 C120.382539,6.84794275 120.945293,8.17948718 120.945293,9.92426953 C120.945293,11.7608825 120.382539,13.1842576 119.25703,14.2403101 C118.131521,15.2504472 116.53705,15.7555158 114.56741,15.7555158 L109.26814,15.7555158 L109.26814,15.7096005 Z M111.941223,14.1025641 L113.910863,14.1025641 C115.317749,14.1025641 116.349466,13.7811568 117.052909,13.092427 C117.756351,12.4036971 118.084625,11.3935599 118.084625,10.0161002 C118.084625,8.9600477 117.803248,8.0417412 117.240493,7.35301133 C116.865324,6.84794275 116.396362,6.52653548 115.880504,6.34287418 C115.364645,6.15921288 114.56741,6.06738223 113.535694,6.06738223 L111.894327,6.06738223 L111.894327,14.1025641 L111.941223,14.1025641 Z" id="Shape"></path>
                </g>
            </g>
        </g>
    </g>
</svg>