<svg width="119" height="29" viewBox="0 0 119 29" xmlns="http://www.w3.org/2000/svg"><defs><filter color-interpolation-filters="auto" id="a"><feColorMatrix in="SourceGraphic" values="0 0 0 0 0.090196 0 0 0 0 0.070588 0 0 0 0 0.121569 0 0 0 1.000000 0"/></filter></defs><g transform="translate(-320 -4033)" filter="url(#a)" fill="none" fill-rule="evenodd"><g fill="#000" fill-rule="nonzero"><path d="M328.574 4043.05l-.73 1.75h5.217l.687-1.75h-4.66l-.083.255s-.037.044-.066.044h-.263a.044.044 0 010-.044l.095-.256h-.197zm4.145 1.058h.259v.05l-.095.264a.124.124 0 01-.083.044h-.263v-.044l.11-.263a.058.058 0 01.064-.051h.008zm.22-.5h.22s.05 0 0 .066l-.084.25a.073.073 0 01-.066.058h-.263s-.044 0 0-.058l.084-.25c0-.037.05-.066.083-.066h.026zm.22-.5h.262s.051 0 0 .044l-.083.27a.095.095 0 01-.083.045h-.25s-.05 0 0-.044l.083-.271a.143.143 0 01.07-.037v-.007zm-4.788.863h.263s.05 0 0 .05l-.095.264a.087.087 0 01-.083.051h-.263v-.05l.11-.264a.058.058 0 01.058-.051h.01zm.22-.512h.262c.037 0 .051 0 .037.065l-.095.264s0 .044-.066.044h-.263s-.044 0 0-.044l.095-.264a.078.078 0 01.059-.065h-.03z"/><path d="M328.728 4043.05s0-.045.066-.045h.262v.044h4.693l1.308-3.257c.38-.852.546-1.784.483-2.716l-1.133-4.076h-5.35l1.089 4.26c.199.684.168 1.414-.088 2.079l-1.462 3.71h.132zm4.634-.447h.26s.045 0 0 .044l-.094.263a.053.053 0 01-.059.051h-.263c-.036 0-.05 0-.036-.05l.095-.264a.176.176 0 01.065-.044h.032zm.22-.505h.263v.05l-.11.264a.066.066 0 01-.058.044h-.27v-.04l.11-.263c0-.04 0-.055.064-.055zm.197-.513h.26c.036 0 .05 0 .036.045l-.095.27a.083.083 0 01-.065.044h-.263s-.044 0 0-.044l.095-.27s.044-.045.058-.045h-.026zm.205-.5h.25s.043 0 0 .045l-.084.263a.083.083 0 01-.066.05h-.263c-.036 0-.05 0-.036-.05l.095-.263a.095.095 0 01.083-.045h.02zm.153-.52h.27v.051l-.11.264s0 .044-.065.044h-.263v-.041l.11-.263a.05.05 0 01.058-.051v-.004zm.205-.512h.28a.037.037 0 01.036.058l-.095.256a.117.117 0 01-.066.058h-.263s-.044 0 0-.058l.083-.256s.051-.058.066-.058h-.041zm.22-.5h.262v.044l-.095.263a.05.05 0 01-.058.051h-.263c-.036 0-.05 0-.036-.05l.11-.279a.095.095 0 01.083 0l-.004-.029zm.204-.52h.263s.044.037 0 .05l-.095.264a.083.083 0 01-.073.044h-.24v-.038l.11-.263a.073.073 0 01.066-.051l-.031-.006zm.212-.5h.27v.05l-.083.27a.066.066 0 01-.058.045h-.27s-.044 0 0-.044l.095-.271a.083.083 0 01.073-.044l-.027-.006zm.095-.5h.278a.05.05 0 010 .083v.227c0 .037 0 .05-.058.05h-.264c-.037 0-.05 0-.05-.05l.036-.227a.066.066 0 01.058-.044v-.039zm0-.483h.278c.037 0 .05 0 .05.044v.263a.05.05 0 01-.05.051h-.264a.046.046 0 01-.044-.05v-.25a.037.037 0 01.044-.045l-.014-.013zm-.058-.505h.25c.027.004.05.024.058.05l.029.286a.05.05 0 01-.05.051h-.265a.058.058 0 01-.036-.05l-.037-.264a.05.05 0 01.05-.05v-.023zm-.11-.513h.25a.066.066 0 01.058.051l.066.263a.037.037 0 01-.045.045h-.27a.044.044 0 01-.044-.045l-.066-.263a.058.058 0 01.051-.05zm-.139-.468h.263a.064.064 0 01.058.05l.051.264v.055h-.3a.064.064 0 01-.058-.044l-.05-.263s0-.051.036-.051v-.011zm-.145-.458h.263a.05.05 0 01.044.05l.066.264a.046.046 0 01-.05.044h-.25s-.059 0-.059-.044l-.014-.263a.05.05 0 01.05-.051h-.05zm-.146-.469h.27a.05.05 0 01.058.051l.066.264a.05.05 0 01-.052.048h-.263a.078.078 0 01-.066-.044l-.022-.256v-.055l.009-.008zm-.124-.483h.27s.044 0 .058.066l.045.263v.044h-.27s-.065 0-.065-.044l-.058-.263c0-.037 0-.066.044-.066h-.024zm-.124-.468h.25c.036 0 .065 0 .065.044l.058.27a.037.037 0 01-.044.045h-.268s-.05 0-.05-.044l-.059-.271c0-.024.02-.044.044-.044h.004zm-.12-.454h.265a.066.066 0 01.065.044l.044.27v.045h-.263a.066.066 0 01-.065-.044l-.074-.315v-.044l.029.044zm-.123-.482h.263a.05.05 0 01.05.05l.059.264a.037.037 0 01-.044.044h-.25s-.066 0-.066-.044l-.056-.264s0-.05.044-.05zm-4.97 9.221h.262s.044.037 0 .066l-.095.25s-.044.066-.058.066h-.263a.044.044 0 01-.037-.066l.095-.263s.051-.051.066-.051l.03-.002zm.219-.5h.27v.051l-.11.263s0 .044-.058.044h-.27s-.044 0 0-.044l.095-.263a.083.083 0 01.083-.05h-.01zm.183-.512h.263s.05 0 0 .044l-.095.27a.095.095 0 01-.083.045h-.263v-.044l.11-.271a.066.066 0 01.058-.044h.01zm.153-.5h.27s.045 0 0 .044l-.094.263s-.044.051-.059.051h-.27s-.044 0 0-.05l.095-.264a.083.083 0 01.058-.044zm.22-.52h.27v.05l-.11.264s0 .044-.065.044h-.234s-.044 0 0-.044l.095-.263a.073.073 0 01.073-.051h-.03zm.204-.513h.242a.037.037 0 01.036.059l-.036.27a.146.146 0 01-.083.045h-.263v-.04l.102-.27a.073.073 0 01.066-.059l-.064-.005zm.242-.5h.263s.044 0 0 .044l-.095.264a.073.073 0 01-.058.05h-.263s-.051 0 0-.05l.095-.264a.087.087 0 01.058-.044zm.22-.52h.262s.045.037 0 .066l-.094.25a.095.095 0 01-.074.058h-.25a.044.044 0 11-.065-.058l.095-.263a.073.073 0 01.066-.051l.06-.002zm.083-.483h.27s.044 0 0 .05v.277s-.036.044-.066.044h-.263s-.05 0 0-.044v-.268a.053.053 0 01.06-.05l-.001-.009zm0-.5h.27c.025 0 .044.02.044.044v.283a.037.037 0 01-.044.044h-.264a.037.037 0 01-.045-.044v-.273a.066.066 0 01.045-.044l-.006-.01zm-.059-.483h.263s.051 0 .051.044v.315h-.266a.05.05 0 01-.058-.05v-.255a.046.046 0 01.05-.044l-.04-.01zm-.102-.524h.263c.03.004.055.024.066.051l.044.264v.044h-.263c-.037 0-.066 0-.066-.044l-.058-.264s0-.05.044-.05h-.03zm-.139-.468h.25s.066 0 .066.051l.058.263a.037.037 0 01-.044.044h-.274a.044.044 0 01-.058-.044l-.074-.262a.05.05 0 01.074-.051h.002zm-.139-.468h.263a.064.064 0 01.058.05l.051.264v.05h-.27a.064.064 0 01-.059-.05l-.05-.263v-.037l.007-.014zm-.127-.48h.263a.046.046 0 01.044.05l.066.264s0 .066-.051.066h-.25s-.058 0-.058-.044l-.067-.25a.05.05 0 01.051-.051l.002-.035zm-.147-.468h.27c.028.004.05.024.06.05l.065.264a.046.046 0 01-.05.044h-.264a.064.064 0 01-.058-.044l-.053-.25v-.054l.03-.01zm-.124-.469h.27a.064.064 0 01.06.051l.05.263v.045h-.263s-.058 0-.058-.045l-.066-.263s0-.05.044-.05h-.037zm-.124-.468h.25a.058.058 0 01.066.05l.058.264a.044.044 0 01-.044.044h-.263s-.05 0-.05-.044l-.084-.263s0-.051.044-.051h.023zm-.16-.483h.263c.025.018.048.04.066.065l.044.264v.044h-.286a.072.072 0 01-.066-.044l-.052-.25v-.069l.03-.01zm-.127-.459h.263a.087.087 0 01.051.051l.058.263a.037.037 0 01-.044.045h-.25c-.036 0-.065 0-.065-.045l-.058-.263s0-.05.044-.05h.001zM335.445 4041.336l1.294 3.374h5.365a5.79 5.79 0 002.712-.512l3.384-2.525-.124-.333-12.631-.004zm1.798 2.73l.084.25v.05h-.278a.102.102 0 01-.084-.05l-.094-.25s0-.044.036-.044h.278a.095.095 0 01.083.044h-.025zm.526 0l.095.234v.051h-.285a.102.102 0 01-.074-.05l-.094-.25v-.043h.285c.03 0 .059.017.073.044v.014zm.549 0l.095.256s0 .044-.037.044h-.344l-.083-.25v-.05h.394-.025zm.562 0l.083.25a.037.037 0 01-.04.042h-.277a.083.083 0 01-.066-.044l-.095-.235c0-.036 0-.05.037-.05h.277c.036-.001.068.019.084.05l-.003-.013zm.541 0l.095.25v.042h-.285a.083.083 0 01-.073-.044l-.153-.167v-.051h.285c.026.015.05.032.074.05l.057-.08zm.549 0l.094.25s0 .044-.036.044h-.292a.095.095 0 01-.084-.044l-.083-.25s0-.05.044-.05h.263c.035.001.066.02.084.05h.01zm.548 0l.083.25v.042h-.271a.124.124 0 01-.083-.044l-.095-.25v-.051h.314a.11.11 0 01.084.05l-.032.003zm.526 0l.095.234v.044h-.285a.124.124 0 01-.073-.044l-.095-.25v-.05h.278a.083.083 0 01.083.05l-.003.016zm.548 0l.083.234v.044h-.357l-.124-.197c0-.037 0-.051.05-.051h.278c.03.004.055.023.066.05l.004-.08zm.541 0l.095.25v.042h-.3s-.058 0-.058-.044l-.095-.235v-.055h.286c.027.005.05.025.058.051l.014-.009zm.563 0l.095.25a.046.046 0 01-.048.042h-.278s-.058 0-.058-.044l-.095-.235v-.044h.278a.659.659 0 01.083.051l.023-.02zm.548 0l.095.25c0 .022-.015.04-.037.044h-.278a.095.095 0 01-.083-.044l-.095-.234v-.044h.278c.032.005.061.02.083.044l.037-.016zm.483-.095l.095.25s0 .05-.037.066l-.25.044h-.058l-.083-.167v-.056l.263-.059h.066l.004-.078zm.467-.153l.095.234a.037.037 0 010 .058l-.25.095h-.058l-.094-.234v-.066l.25-.083h.065l-.008-.004zm.439-.25l.083.25c.01.018.01.04 0 .058l-.225.124h-.059l-.094-.25v-.059l.233-.124h.062zm.431-.286l.095.25v.066l-.22.153h-.066l-.083-.234v-.083l.22-.14h.058l-.004-.012zm.394-.293l.084.25v.084l-.234.139h-.058l-.095-.25v-.083l.22-.14h.083zm.388-.3l.095.25a.073.073 0 010 .084l-.234.139a.044.044 0 01-.065 0l-.095-.25a.066.066 0 010-.066l.212-.155h.063l.024-.002zm.388-.278l.11.25a.167.167 0 010 .066l-.234.153h-.05l-.084-.234a.073.073 0 010-.083l.234-.14h.044l-.02-.012zm.41-.3l.083.25v.083l-.22.14h-.058l-.14-.154a.083.083 0 010-.083l.235-.14h.065l.035-.096zm.387-.292l.095.25v.083l-.212.14h-.066l-.095-.25s0-.052.037-.067l.212-.153a.05.05 0 01.066 0l-.037-.003zm.388-.286l.095.256v.058l-.234.153h-.066l-.083-.234v-.075l.22-.146h.058l.01-.012zm.395-.293l.083.25v.084l-.234.139h-.058l-.095-.25v-.083l.22-.14h.084z"/><path d="M348.076 4041.337l-1.76-4.677-3.62 2.555a3.28 3.28 0 01-1.966.651l-5.848-.074.592 1.544 12.602.001zm-12.301-1.377l.094.25v.051h-.287a.073.073 0 01-.074-.05l-.093-.236v-.044h.286a.124.124 0 01.073.044v-.015zm.562 0l.095.256a.046.046 0 01-.05.044h-.301s-.066 0-.066-.044l-.083-.256v-.043h.278c.032.003.062.02.083.044h.044zm.549 0l.083.25v.045h-.306a.095.095 0 01-.083-.045l-.095-.25s0-.05.037-.05h.285c.035 0 .067.02.084.05h-.005zm.54 0l.095.25v.045h-.285a.124.124 0 01-.073-.045l-.095-.25v-.05h.285a.073.073 0 01.073.05zm.549 0l.095.235v.048h-.278a.096.096 0 01-.083-.044l-.084-.25s0-.051.044-.051h.278a.058.058 0 01.066.05l-.038.012zm.548 0l.083.25v.045h-.332a.117.117 0 01-.084 0l-.095-.25a.044.044 0 01.051-.051h.265a.16.16 0 01.083 0l.03.006zm.526 0l.095.256v.044h-.285a.083.083 0 01-.074-.044l-.095-.234c0-.037 0-.05.045-.05h.285c.027 0 .05.018.058.043l-.029-.015zm.549 0l.083.25v.045h-.272s-.065 0-.065-.045l-.118-.183v-.052h.278s.066 0 .066.051l.028-.066zm.54 0l.11.25c0 .025-.02.045-.044.045h-.285s-.058 0-.058-.045l-.124-.183v-.052h.285a.05.05 0 01.058.051l.058-.066zm.563 0l.095.25c0 .025-.02.045-.044.045h-.286a.083.083 0 01-.073-.045l-.095-.25v-.05h.277a.083.083 0 01.083.05h.043zm.548 0l.095.25s0 .045-.036.045h-.278a.095.095 0 01-.084-.045l-.094-.25a.058.058 0 01.05-.044h.292a.095.095 0 01.084.044h-.029zm.483-.095l.11.25v.051l-.27.059h-.059l-.095-.25v-.05l.25-.059h.064zm.468-.166l.095.25a.066.066 0 01-.037.058l-.25.095a.058.058 0 01-.058 0l-.095-.25a.132.132 0 010-.066l.25-.095a.083.083 0 01.066 0l.029.008zm.46-.11l.083.25v.058l-.234.124h-.058l-.095-.234a.088.088 0 010-.083l.234-.124a.058.058 0 01.066.007l.004.002zm.431-.3l.095.25a.073.073 0 010 .083l-.234.14h-.066l-.083-.25v-.07l.22-.154h.068zm.396-.28l.083.25v.059l-.234.16a.066.066 0 01-.058-.036l-.095-.234v-.074l.22-.141h.067l.017.017zm.388-.3l.095.25a.073.073 0 010 .084l-.233.135h-.051l-.132-.322a.066.066 0 010-.083l.234-.14h.044l.043.077zm.402-.292l.095.25a.088.088 0 010 .084l-.25.11h-.058l-.095-.256v-.059l.234-.153h.058l.016.024zm.373-.292l.083.25v.066l-.22.153h-.058l-.095-.234a.066.066 0 010-.084l.22-.139a.044.044 0 01.065 0l.005-.012zm.387-.293l.095.25a.058.058 0 010 .084l-.22.139h-.065l-.095-.25v-.084l.212-.139a.05.05 0 01.066 0h.007zm.388-.3l.095.25a.073.073 0 010 .084l-.234.139h-.068l-.083-.25a.058.058 0 010-.059l.22-.16h.058l.012-.004zm.395-.278l.083.25v.066l-.234.153h-.044l-.09-.23a.073.073 0 010-.083l.233-.14h.05l.002-.016zm.402-.3l.094.256v.073l-.22.14h-.065l-.095-.25a.066.066 0 010-.084l.234-.14h.058l-.006.005zM341.812 4056.085l2.442 1.735 2.142-1.735h-3.655l.095.084a.044.044 0 010 .058l-.176.197a.083.083 0 01-.083 0l-.205-.175v-.059l.083-.083h-.255l-.388-.022zm1.462.424l-.22.167a.05.05 0 01-.065 0l-.22-.167a.058.058 0 010-.065l.205-.167a.083.083 0 01.083 0l.22.167a.05.05 0 010 .065h-.003zm.388.279l-.205.176a.066.066 0 01-.073 0l-.205-.176v-.059l.212-.16h.074l.204.16v.059h-.007zm.41.3l-.205.153a.083.083 0 01-.084 0l-.22-.176a.044.044 0 010-.058l.205-.153a.058.058 0 01.084 0l.22.166a.05.05 0 010 .066v.002zm.387.278l-.205.153h-.083l-.197-.153v-.064l.146-.147a.083.083 0 01.084 0l.204.167v.063l.051-.019z"/><path d="M342.133 4056.085l-.205-.139a.05.05 0 010-.066l.22-.19a.083.083 0 01.083 0l.205.167v.066l-.176.139h.176l.124-.095h.083l.103.095h3.656l2.01-1.625-3.552-2.613a3.234 3.234 0 01-1.235-1.667l-1.697-5.607-4.064 3.294 1.638 5.124c.233.91.688 1.747 1.325 2.437l.998.731.308-.05zm-3.553-7.963l-.205.175h-.058l-.044-.278a.073.073 0 010-.083l.204-.176h.066l.073.263a.066.066 0 010 .074l-.036.025zm.139.52l-.197.166a.058.058 0 01-.066 0l-.083-.263a.103.103 0 010-.095l.204-.153h.066l.073.263c.02.024.02.059 0 .083l.003-.001zm.139.549l-.197.153h-.051l-.083-.27a.058.058 0 010-.074l.197-.176a.05.05 0 01.066 0l.094.27a.118.118 0 01-.036.096h.01zm.16.512l-.204.167h-.044l-.095-.263a.073.073 0 010-.084l.22-.166h.043l.095.263v.083h-.015zm.167.527l-.22.176h-.044l-.095-.271v-.073l.205-.161h.048l.083.27a.058.058 0 010 .074l.023-.015zm.16.534l-.204.153h-.062l-.073-.278v-.073l.205-.166h.044l.095.263v.083l-.005.018zm.167.512l-.22.176-.044-.036-.095-.264v-.073l.205-.176h.044l.095.271v.073l.015.03zm.19.505l-.205.154h-.066l-.073-.271a.066.066 0 010-.073l.205-.176h.058l.083.27a.11.11 0 010 .096h-.002zm.153.513l-.205.167h-.044l-.095-.264a.073.073 0 010-.083l.205-.167h.058l.095.264v.083h-.014zm.153.527l-.197.175h-.051l-.095-.27a.083.083 0 010-.084l.205-.16h.065l.095.27s0 .059-.036.074l.014-.005zm.16.534l-.204.153h-.053l-.083-.263v-.084l.205-.166h.058l.095.263v.083l-.018.014zm.154.526l-.205.161h-.04l-.094-.27a.066.066 0 010-.074l.205-.176h.058l.095.271v.073l-.02.015zm.25.44l-.22.175h-.059l-.124-.27a.044.044 0 010-.074l.197-.16a.044.044 0 01.066 0l.124.212v.083l.015.033zm.299.388l-.205.16a.05.05 0 01-.066 0l-.139-.204a.058.058 0 010-.084l.205-.153h.058l.176.205a.066.066 0 010 .073l-.03.003zm.358.333l-.205.176h-.083l-.183-.19a.044.044 0 010-.058l.22-.176a.044.044 0 01.058 0l.19.19v.058h.003zm.402.344l-.205.154h-.073l-.205-.167a.044.044 0 010-.058l.205-.161a.066.066 0 01.073 0l.205.176v.056zm.409.286l-.205.153a.083.083 0 01-.083 0l-.205-.175v-.059l.22-.153a.058.058 0 01.083 0l.205.167a.05.05 0 010 .065l-.015.002zm0-10.196l-.197.167h-.066l-.083-.264v-.083l.197-.153h.066l.083.263c.02.024.02.059 0 .083v-.013zm.146.527l-.204.175h-.059l-.083-.263a.073.073 0 010-.083l.205-.176h.058l.095.263v.074l-.012.01zm.154.534l-.205.166h-.044l-.095-.263v-.083l.205-.154h.058l.095.264v.083l-.014-.013zm.151.53l-.197.16h-.044l-.118-.314a.066.066 0 010-.074l.22-.176.05.037.096.263s0 .059-.037.074l.03.03zm.176.534l-.22.153h-.05l-.084-.263v-.083l.22-.167h.041l.095.263a.22.22 0 01.005.094l-.007.003zm.153.512l-.205.161h-.04l-.096-.27a.066.066 0 010-.074l.22-.176h.042l.095.271v.083l-.016.005zm.204.484l-.204.175h-.066l-.073-.263a.073.073 0 010-.083l.204-.176h.059l.083.263a.066.066 0 010 .074l-.003.01zm.154.534l-.205.166h-.058l-.084-.263a.103.103 0 010-.095l.205-.153h.066l.073.263a.073.073 0 010 .083l.003-.001zm.153.526l-.198.161h-.043l-.095-.27a.058.058 0 010-.074l.198-.176c.036 0 .05 0 .065.037l.095.263a.118.118 0 01-.037.074l.015-.015zm.16.535l-.204.153h-.045l-.094-.263a.073.073 0 010-.084l.233-.16.095.263v.095l.015-.004zm.153.534l-.204.153h-.059l-.093-.313a.066.066 0 010-.073l.202-.176h.065l.074.27v.095l.015.044zm.234.431l-.205.161a.044.044 0 01-.058 0l-.124-.234v-.083l.22-.176h.058l.124.234a.05.05 0 010 .073l-.015.025zm.315.374l-.205.175a.083.083 0 01-.083 0l-.153-.22a.05.05 0 010-.065l.22-.167h.058l.16.205a.044.044 0 010 .058l.003.014zm.358.344l-.205.176h-.083l-.183-.19a.044.044 0 010-.059l.197-.176h.083l.19.19v.059zm.402.333l-.205.176a.066.066 0 01-.073 0l-.205-.176v-.058l.205-.176a.066.066 0 01.073 0l.205.176v.058zm.409.278l-.205.176a.083.083 0 01-.083 0l-.22-.176a.044.044 0 010-.058l.205-.153c0-.037.066-.037.083 0l.22.153v.058zm.388.3l-.205.154a.066.066 0 01-.073 0l-.227-.167a.05.05 0 010-.066l.205-.153a.066.066 0 01.073 0l.205.167v.065h.022zm.402.279l-.198.16h-.083l-.22-.16v-.059l.22-.175a.05.05 0 01.066 0l.212.175.003.059zm.394.285l-.241.154h-.083l-.198-.167a.044.044 0 010-.066l.198-.166a.083.083 0 01.083 0l.205.166v.066l.036.013zm.402.279l-.205.176a.066.066 0 01-.073 0l-.205-.176v-.063l.205-.176a.066.066 0 01.073 0l.205.176a.044.044 0 01.002.06l-.002.003zm.41.286l-.22.166a.083.083 0 01-.083 0l-.205-.166a.052.052 0 010-.066l.205-.167h.083l.197.153v.065l.023.015zm.387.292l-.204.153a.05.05 0 01-.074 0l-.204-.166v-.078l.204-.153a.066.066 0 01.074 0l.204.176v.068zm.402.278l-.197.161h-.083l-.22-.176v-.07l.205-.161a.083.083 0 01.083 0l.212.176a.044.044 0 010 .058v.012zM329.32 4060.273l2.573 1.727.621-1.727h-.166v.058h-.066l-.11-.073-2.853.015zm2.777.541l-.22-.153a.058.058 0 010-.066l.11-.25s0-.044.044 0l.22.153a.088.088 0 010 .084l-.11.25h-.058l.014-.018zm-.139.469l-.22-.154a.05.05 0 010-.083l.11-.25h.045l.22.153s.043.051 0 .066l-.11.25s0 .044-.045 0v.018zm-.16.454l-.213-.14v-.083l.11-.25h.066l.22.14a.073.073 0 010 .083l-.11.25H331.798z"/><path d="M327.62 4058.537l-.153.468 1.85 1.267h2.821l-.11-.066a.073.073 0 010-.083l.11-.25h.05l.213.139a.083.083 0 01.022.066l-.084.19h.167l.643-1.735h-.394l.124.083c.036 0 .036.044 0 .073l-.095.25a.044.044 0 01-.066 0l-.22-.16v-.059l.084-.205h-4.38s0 .044-.065 0l-.095.022h-.422zm.333.5l-.22-.14a.073.073 0 010-.083l.084-.25h.065l.22.14v.083l-.11.25h-.058.019zm4.613.388l-.22-.153a.066.066 0 010-.074l.095-.255h.058l.22.16c.01.019.01.04 0 .059l-.11.25s0 .05-.058 0l.015.013zm-.153.454l-.22-.139a.066.066 0 010-.083l.083-.25h.066l.22.139a.103.103 0 010 .083l-.11.25h-.059.02z"/><path d="M328.04 4058.538l-.153-.11a.073.073 0 010-.084l.095-.25h.058l.22.154v.069l-.073.234h4.385v-.044a.058.058 0 01.066 0l.083.083h.431l.22-.702a3.235 3.235 0 011.243-1.706l4.853-3.294-4.33-2.929-4.386 3.045a5.852 5.852 0 00-1.98 1.99l-1.17 3.544h.438zm7.017-7.788l-.215-.183v-.044l.234-.166a.058.058 0 01.083 0l.22.139-.022.073-.22.16a.083.083 0 01-.095 0l.015.02zm-.453.278l-.22-.139v-.066l.212-.167a.11.11 0 01.095 0l.22.154v.05l-.22.167a.11.11 0 01-.095 0l.008.001zm-.468.3l-.22-.16v-.045l.234-.176h.083l.22.147v.058l-.22.176a.11.11 0 01-.094 0h-.003zm-.454.293l-.21-.137a.044.044 0 010-.066l.233-.153a.066.066 0 01.073 0l.22.139a.058.058 0 010 .066l-.234.153a.083.083 0 01-.083 0l.001-.002zm-.446.315l-.22-.154v-.048l.22-.167a.095.095 0 01.084 0l.22.14a.044.044 0 010 .058l-.234.176a.066.066 0 01-.073-.005h.003zm-.467.292l-.22-.14a.044.044 0 010-.057l.234-.161a.066.066 0 01.073 0l.22.146c.036 0 .036.045 0 .059l-.22.153a.066.066 0 01-.083 0h-.004zm-.439.315l-.218-.142v-.066l.234-.154h.083l.22.14a.058.058 0 010 .065l-.22.154a.083.083 0 01-.083 0l-.016.003zm-.423.344l-.213-.124v-.05l.234-.167a.083.083 0 01.084 0l.22.139v.058l-.235.176h-.083l-.007-.032zm-.454.293l-.212-.14c-.037 0-.037-.044 0-.058l.234-.16a.066.066 0 01.073 0l.22.16a.044.044 0 010 .059l-.234.153a.058.058 0 01-.083 0l.002-.014zm-.49.315l-.197-.154v-.05l.22-.167a.095.095 0 01.083 0l.22.139a.044.044 0 010 .066l-.22.166a.11.11 0 01-.11 0h.004zm-.446.3l-.22-.147a.044.044 0 010-.058l.234-.154s.058-.036.073 0l.22.161c.037 0 .037.044 0 .058l-.22.161a.095.095 0 01-.083 0l-.004-.021zm-.454.307l-.22-.153v-.049l.22-.175a.11.11 0 01.095 0l.212.139a.044.044 0 010 .066l-.233.153h-.072l-.002.02zm-.357.358l-.22-.153a.05.05 0 01.015-.083l.166-.198a.083.083 0 01.084 0l.22.14v.058l-.176.205a.066.066 0 01-.074 0l-.015.031zm-.286.395l-.212-.146s-.037-.044 0-.059l.16-.22h.059l.22.14v.083l-.14.22h-.083l-.004-.018zm-.212.455l-.22-.147a.058.058 0 010-.073l.124-.235c0-.036 0-.036.058 0l.22.14a.066.066 0 010 .073l-.124.234c0 .037 0 .037-.058 0v.008zm-.19.483l-.22-.143v-.073l.11-.25c0-.037 0-.037.059 0l.22.14a.066.066 0 010 .073l-.11.25c0 .036 0 .036-.045 0l-.014.003zm-.153.468l-.22-.16v-.059l.11-.25c0-.037 0-.037.066 0l.22.147a.066.066 0 010 .073l-.095.25s-.044.037-.058 0h-.023zm-.16.468l-.22-.16v-.074l.11-.234c0-.037 0-.05.065-.037l.213.161v.059l-.095.25a.046.046 0 01-.066.036h-.008zm-.154.447l-.22-.139v-.073l.096-.256h.058l.22.139v.083l-.095.25c0 .037-.045.037-.059 0v-.004zm-.153.468l-.22-.139a.066.066 0 010-.073l.088-.256h.066l.22.14a.083.083 0 010 .083l-.096.25c0 .036-.044.036-.058 0v-.005zm-.16.469l-.198-.154a.058.058 0 010-.073l.095-.25a.044.044 0 01.066 0l.212.14c.02.023.02.058 0 .083l-.095.25h-.065l-.015.004zm10.348-4.853l-.22-.14v-.065l.235-.167a.083.083 0 01.083 0l.22.153v.051l-.234.167a.083.083 0 01-.084 0zm-.467.3l-.212-.147c-.037 0-.037-.044 0-.058l.212-.176a.11.11 0 01.095 0l.22.16v.045l-.234.176a.083.083 0 01-.084 0h.003zm-.468.307l-.212-.153a.044.044 0 010-.066l.234-.153a.066.066 0 01.073 0l.22.139v.066l-.22.153a.11.11 0 01-.095 0v.014zm-.446.3l-.22-.139a.05.05 0 010-.066l.234-.167a.05.05 0 01.073 0l.22.154v.044l-.234.176a.066.066 0 01-.073 0v-.002zm-.453.308l-.22-.154v-.058l.22-.16a.095.095 0 01.083 0l.22.138a.05.05 0 010 .066l-.234.153s-.059.037-.074 0l.005.015zm-.454.315l-.22-.154v-.05l.234-.167a.083.083 0 01.083 0l.22.139v.066l-.22.153a.083.083 0 01-.095 0l-.002.013zm-.424.333l-.217-.14a.044.044 0 010-.065l.212-.167a.11.11 0 01.095 0l.22.154v.044l-.22.176a.11.11 0 01-.095 0l.005-.002zm-.453.292l-.212-.139v-.058l.234-.16a.066.066 0 01.073 0l.22.146v.058l-.234.153h-.081zm-.446.315l-.217-.142v-.066l.234-.167a.066.066 0 01.074 0l.22.154v.05l-.235.167a.066.066 0 01-.073 0l-.003.004zm-.454.315l-.22-.16v-.059l.22-.153a.073.073 0 01.095.022l.212.139v.058l-.22.16a.16.16 0 01-.073 0l-.014-.007zm-.467.293l-.22-.153v-.045l.234-.175a.083.083 0 01.083 0l.212.139a.044.044 0 010 .066l-.234.166a.066.066 0 01-.073 0l-.002.002zm-.344.358l-.22-.153v-.066l.183-.183h.066l.22.139v.083l-.19.183-.059-.003zm-.285.41l-.213-.16c-.036 0-.036-.045 0-.059l.147-.22a.066.066 0 01.073 0l.22.153a.05.05 0 010 .066l-.153.22a.058.058 0 01-.066 0h-.008zm-.213.432l-.22-.14v-.073l.132-.234h.058l.22.147v.073l-.11.234h-.058l-.022-.007zm-.204.49l-.22-.146a.066.066 0 010-.073l.095-.25h.058l.22.146v.074l-.095.25c0 .033-.04.033-.055 0h-.003zm-.154.469l-.22-.147a.058.058 0 010-.073l.084-.25h.066l.22.147a.066.066 0 010 .073l-.095.25c.004.037.004.037-.055 0z"/><path d="M328.713 4051.181l2.496 1.735.395-1.735h-2.014v.066l-.05.25h-.06l-.233-.153a.058.058 0 01-.037-.044v-.095h-.146s0 .036-.058 0l-.293-.024zm1.841 1.084l.059-.271h.05l.234.16a.05.05 0 010 .074l-.066.25c0 .037 0 .037-.044 0l-.233-.153s-.045-.044 0-.059v-.001zm-.453-.344l.058-.25c0-.037 0-.037.066 0l.234.146a.154.154 0 010 .074l-.059.27h-.064l-.205-.131a.11.11 0 010-.074l-.03-.035zm-.439-.315l.051-.264h.058l.234.154c.01.026.01.056 0 .083l-.058.25h-.05l-.227-.153s-.051-.066 0-.084l-.008.014z"/><path d="M329.012 4051.185l-.22-.14a.11.11 0 010-.073l.059-.25c0-.036 0-.05.044-.036l.234.16c.031.01.052.04.05.074l-.065.263h.146l.044-.153h.045l.233.153h2.01l.776-3.367-4.386-3.03a5.712 5.712 0 00-2.573-1.092l-4.21.205-1.199 5.203 4.386-.11c.71-.04 1.412.158 1.997.563l2.324 1.617.305.013zm2.618-3.148l.065-.25h.051l.234.161s.044.044 0 .059l-.044.27h-.066l-.176-.166a.11.11 0 010-.074h-.064zm-.424-.315l.05-.25s0-.044.059 0l.234.154v.083l-.066.263h-.044l-.234-.153a.058.058 0 01-.036-.083l.037-.014zm-.446-.333l.058-.262h.044l.234.153a.083.083 0 01.05.083l-.065.25h-.058l-.234-.153a.132.132 0 010-.066l-.03-.005zm-.454-.333l.059-.25s0-.044.065 0l.234.139a.22.22 0 010 .083l-.066.264h-.044l-.233-.154a.083.083 0 01-.045-.083h.03zm-.438-.308l.044-.263a.05.05 0 01.066 0l.234.16a.05.05 0 010 .074l-.059.256s0 .044-.05 0l-.234-.16s-.044-.06 0-.074l-.001.007zm-.454-.333l.084-.25h.044l.233.153a.058.058 0 010 .084l-.044.25h-.061l-.234-.154a.132.132 0 010-.083h-.022zm-.453-.292l.066-.256s0-.044.044 0l.233.153s.051.05 0 .083l-.044.264s0 .036-.058 0l-.205-.198a.088.088 0 01-.036-.073v.027zm-.454-.271l.051-.264h.058l.234.154a.14.14 0 01.037.083l-.066.25s0 .044-.044 0l-.234-.153s-.05-.066 0-.084l-.036.014zm-.467-.334l.058-.25h.05l.227.161s.05.044 0 .059l-.066.263h-.042l-.234-.15a.05.05 0 010-.083h.007zm-.454-.307l.058-.25c0-.037 0-.05.051-.037l.234.161a.083.083 0 01.044.073l-.058.271h-.064l-.234-.16a.11.11 0 010-.074l-.031.016zm-.453-.315l.058-.263h.065l.234.166a.132.132 0 010 .084l-.059.25h-.048l-.234-.14a.147.147 0 01-.044-.083l.028-.014zm-.439-.333l.066-.25s0-.044.044 0l.234.153a.058.058 0 010 .083l-.059.264h-.05l-.233-.154a.058.058 0 010-.083l-.002-.013zm-.468-.198l.066-.25c0-.036 0-.05.058-.036l.25.095a.088.088 0 010 .065l-.022.264h-.058l-.234-.11a.05.05 0 01-.05-.059l-.01.031zm-.466-.096l.088-.293h.044l.263.066s.036 0 .036.058l-.065.25a.037.037 0 01-.059.037l-.22-.058s-.043-.045 0-.059l-.087-.001zm-.499-.051l.087-.242h.322a.044.044 0 010 .044l-.066.256s0 .044-.066.044h-.26v-.051l-.017-.051zm-.533 0l.087-.242a.066.066 0 01.066-.044h.234a.044.044 0 01.073.044l-.073.242a.083.083 0 01-.066.05h-.262a.05.05 0 01-.05-.05h-.01zm-.483 0l.087-.242a.066.066 0 01.051-.05h.277a.037.037 0 01.044.043l-.058.25c0 .037-.037.051-.066.051h-.26a.05.05 0 01-.051-.05l-.024-.002zm-.483 0l.088-.242s0-.044.058-.044h.27s.044 0 0 .044l-.065.27a.066.066 0 01-.045.045h-.274s-.05 0-.037-.044l.005-.03zm-.5 0l.067-.264c0-.036 0-.05.058-.05h.263s.05 0 .05.065l-.05.315s0 .045-.058.045h-.26a.044.044 0 01-.043-.045l-.026-.066zm-.482 0l.059-.264c.03-.008.061 0 .083.022h.265a.05.05 0 01.051.05l-.066.25s0 .045-.058.045h-.263a.037.037 0 01-.044-.044l-.027-.06zm-.482 0l.058-.25s.036-.044.066-.044h.263s.044 0 0 .044l-.059.263a.05.05 0 01-.05.05h-.273v-.046l-.005-.017zm-.483 0l.044-.264s0-.044.066-.044h.263a.037.037 0 01.044.044l-.044.389c0 .036 0 .05-.066.05h-.25v-.05l-.057-.125zm-.504 0l.065-.256s0-.044.059-.044h.27a.037.037 0 01.044.044l-.058.27s-.037.045-.066.045h-.258s-.05 0-.05-.044l-.006-.015zm6.973 6.3l.058-.263h.051l.25.153c.01.027.01.057 0 .083l-.066.25h-.058l-.23-.141a.184.184 0 010-.084l-.005.002zm-.453-.278l.058-.25h.05l.235.16a.05.05 0 010 .074l-.059.256h-.043l-.234-.161a.05.05 0 010-.073l-.007-.006zm-.454-.315l.066-.25s0-.044.044 0l.234.153a.058.058 0 010 .084l-.044.263a.05.05 0 01-.066 0l-.234-.153a.132.132 0 010-.084v-.013zm-.453-.315l.066-.258h.058l.234.153a.132.132 0 010 .083l-.058.25h-.25a.154.154 0 010-.083l-.05-.145zm-.433-.317l.087-.102c0-.037 0-.037.059 0l.233.146a.176.176 0 010 .074l-.065.263s0 .037-.044 0l-.184-.16c-.036 0-.05-.045-.036-.074l-.05-.147zm-.424-.191l.058-.264c0-.036 0-.036.05 0l.234.154a.058.058 0 010 .083l-.05.25h-.059l-.233-.14a.118.118 0 010-.083zm-.454-.205l.044-.264a.05.05 0 01.066 0l.25.095v.059l-.059.25s-.036.05-.05 0l-.25-.095s-.044 0 0-.066l-.001.02zm-.5-.103l.059-.25h.054l.263.058s.044 0 0 .051l-.058.264h-.051l-.263-.059a.05.05 0 010-.066l-.003.002zm-.504 0l.066-.263a.05.05 0 01.058-.051l.27.037a.044.044 0 010 .058l-.065.25a.058.058 0 01-.044.05h-.26a.058.058 0 01-.05-.043l.025-.038zm-.511 0l.044-.25c0-.037.05-.066.065-.05h.278v.05l-.065.25s0 .044-.059.044h-.217s-.044 0 0-.044h-.046zm-.5 0l.051-.278s0-.051.066-.051h.263s.044.037.044.05l-.058.264s0 .044-.066.044l-.25-.015a.037.037 0 010-.044l-.05.03zm-.482 0l.058-.263s0-.044.066-.044h.263s.044 0 0 .044l-.045.25a.102.102 0 01-.065.05h-.23v-.05l-.047.013zm-.483 0l.044-.25a.083.083 0 01.058-.044h.286s.044 0 0 .044l-.058.263s0 .051-.066.051h-.258s-.051 0 0-.05l-.006-.014zm-.504 0l.058-.22s0-.044.058-.044h.276s.045 0 .045.058l-.07.259s0 .044-.058.044h-.25a.05.05 0 01-.05-.044l-.01-.053zm-.483 0l.066-.27a.066.066 0 01.058-.045h.27s.045 0 0 .05l-.05.25s0 .045-.059.045h-.213c-.037 0-.051 0-.051-.044l-.021.014zm-.483 0l.044-.25a.095.095 0 01.066-.05h.278a.037.037 0 01.037.05l-.066.263a.066.066 0 01-.058.045h-.265s-.044 0 0-.045l-.036-.013zm-.499 0l.058-.153s.037-.051.066-.051h.263s.05 0 .05.044l-.065.25a.058.058 0 01-.066.05h-.25s-.043-.036-.043-.05l-.013-.09zm-.483 0l.059-.25s0-.044.065-.044h.287s.044 0 0 .044l-.044.263s0 .051-.066.051h-.262a.046.046 0 01-.044-.05l.005-.014zM361.137 4044.754a3.554 3.554 0 00-.467-1.916 1.331 1.331 0 00-1.165-.66c-.65-.008-1.241.38-1.492.981a7.152 7.152 0 00-.519 3.016 6.647 6.647 0 00.454 2.796c.26.571.835.932 1.462.916 1.045 0 1.637-.731 1.783-2.25l3.772.256a5.925 5.925 0 01-1.733 3.792 5.5 5.5 0 01-3.757 1.354 6.177 6.177 0 01-3.224-.828 5.516 5.516 0 01-2.152-2.34 8.155 8.155 0 01-.782-3.66 7.68 7.68 0 011.652-5.24 5.792 5.792 0 014.502-1.867 5.353 5.353 0 013.882 1.467 5.97 5.97 0 011.651 4l-3.867.22v-.037zM365.999 4042.054v-2.686h3.947v2.686h-3.947zm0 10.738v-9.94h3.947v9.91l-3.947.03zM371.474 4052.76v-9.908h3.523v1.408a2.923 2.923 0 012.836-1.69 3.03 3.03 0 012.463.907 4.22 4.22 0 01.731 2.783v6.5h-3.8v-6.102c0-.936-.286-1.39-.907-1.39-.62 0-1.035.468-1.06 1.409v6.083h-3.786zM385.895 4041.542l1.82-3.499h2.696l-3.07 3.5-1.446-.001zm.307 5.05h2.807v-.041c0-1.076-.5-1.625-1.415-1.654-.382-.004-.75.15-1.016.424a1.729 1.729 0 00-.372 1.134l-.004.138zm6.755 2.928a4.809 4.809 0 01-1.886 2.627 5.842 5.842 0 01-3.398.937 5.667 5.667 0 01-3.604-1.098 4.969 4.969 0 01-1.462-1.823 5.276 5.276 0 01-.533-2.298 5.186 5.186 0 011.575-3.803 5.171 5.171 0 013.848-1.453 5.951 5.951 0 012.924.732 4.83 4.83 0 011.9 1.852c.465.836.702 1.78.688 2.737v.695h-6.8v.11c0 1.186.548 1.778 1.572 1.815a1.415 1.415 0 001.462-1.223l3.714.224v-.031zM394.104 4056.224v-13.372h3.495v1.53a2.865 2.865 0 012.68-1.801 3.53 3.53 0 012.835 1.39 6.353 6.353 0 011.09 3.814 6.264 6.264 0 01-1.104 3.85 3.41 3.41 0 01-2.778 1.405 2.754 2.754 0 01-2.413-1.296v4.48h-3.805zm3.808-6.975c-.023.36.075.719.278 1.018a.87.87 0 00.73.358c.84 0 1.249-.937 1.265-2.782.017-1.845-.423-2.635-1.248-2.635a1.06 1.06 0 00-.73.322 1.143 1.143 0 00-.279.783v2.928l-.016.008zM410.426 4053.056a5.412 5.412 0 01-3.881-1.465 5.164 5.164 0 01-1.463-3.791 5.128 5.128 0 011.463-3.806 5.966 5.966 0 017.777 0 5.087 5.087 0 011.462 3.806 5.128 5.128 0 01-1.464 3.793 5.427 5.427 0 01-3.894 1.463zm0-2.5c.906 0 1.36-.886 1.345-2.73-.015-1.844-.439-2.767-1.345-2.745a1.024 1.024 0 00-1.009.667 4.793 4.793 0 00-.314 2.083c-.05.7.057 1.403.314 2.056.155.42.562.692 1.009.674v-.005zM416.851 4052.791v-13.423h3.94v13.423zM422.26 4042.054v-2.686h3.94v2.686h-3.94zm0 10.738v-9.94h3.94v9.91l-3.94.03zM427.026 4049.886l3.135-.389c.176.732.893 1.128 2.193 1.128.352.018.702-.047 1.024-.19a.57.57 0 00.358-.483c0-.279-.183-.455-.556-.5-.373-.046-.921-.14-1.608-.235a14.559 14.559 0 01-1.542-.344 3.858 3.858 0 01-1.389-.688 3.051 3.051 0 01-.811-.98c-.18-.384-.279-.8-.292-1.223a3.085 3.085 0 011.213-2.467 5.718 5.718 0 013.406-1 6.024 6.024 0 012.923.689 3.9 3.9 0 011.665 1.983l-2.975.526a1.863 1.863 0 00-1.843-.87c-.73 0-1.089.197-1.089.622 0 .278.22.468.672.534l2.07.322c.492.086.98.197 1.461.333.447.128.858.358 1.2.674.595.525.932 1.284.922 2.079a3.09 3.09 0 01-1.345 2.54 6.069 6.069 0 01-3.655 1.017 6.567 6.567 0 01-3.429-.798 3.864 3.864 0 01-1.717-2.298l.009.018zM437.94 4051.357c.145 0 .289.028.423.084.131.058.248.143.344.25.1.093.18.206.234.333.04.13.06.266.058.402.006.145-.019.29-.073.425a.937.937 0 01-.234.333c-.1.094-.216.169-.344.22-.13.056-.268.088-.41.095a1.08 1.08 0 01-.401-.095.826.826 0 01-.344-.234 1.048 1.048 0 01-.234-1.15 1.2 1.2 0 01.25-.365c.199-.185.46-.29.73-.293v-.005zm0 .19a.869.869 0 00-.607.25.938.938 0 00-.183.293.733.733 0 00-.066.333.682.682 0 00.066.333c.03.107.087.203.166.279a.994.994 0 00.3.205.73.73 0 00.321.058.818.818 0 00.333-.058c.108-.05.209-.114.3-.19a.833.833 0 00.183-.279.784.784 0 00.066-.344.732.732 0 00-.066-.333.833.833 0 00-.183-.278.847.847 0 00-.629-.264l-.001-.005zm-.454.264h.468c.344 0 .52.124.52.344a.374.374 0 01-.067.197.333.333 0 01-.183.11l.263.52h-.358l-.22-.468h-.094v.468h-.333l.004-1.171zm.333.205v.307h.11c.139 0 .22-.044.22-.14 0-.094-.084-.166-.234-.166l-.096-.001z"/></g></g></svg>