<svg width="83" height="26" viewBox="0 0 83 26" xmlns="http://www.w3.org/2000/svg"><defs><filter color-interpolation-filters="auto" id="a"><feColorMatrix in="SourceGraphic" values="0 0 0 0 0.090196 0 0 0 0 0.070588 0 0 0 0 0.121569 0 0 0 1.000000 0"/></filter></defs><g transform="translate(-321 -4142)" filter="url(#a)" fill="none" fill-rule="evenodd"><path d="M331.95 4142.425h10.907v.14c-.46 2.19-.91 4.325-1.34 6.493 0 .054-.078.124 0 .186 0-.054.083-.07.132-.1a3.6 3.6 0 011.769-.42h9.788c.2-.002.398.018.592.062.48.102.89.409 1.122.84.062-.28.125-.521.171-.777 0-.11.063-.148.18-.148h12.666c.3.007.593.092.85.248.363.22.676.513.919.862 0 .039 0 .093.1.093.063-.33.14-.668.187-1.01 0-.148.078-.179.219-.179h12.345a3.231 3.231 0 012.54 1.18c.219.275.395.581.522.908l.078-.109c.424-.45.9-.848 1.417-1.188a4.403 4.403 0 012.408-.776h11.202c.125 0 .149 0 .125.155-.109.505-.21 1.017-.319 1.554-.397 1.918-.779 3.883-1.2 5.763 0 .116-.062.155-.194.155h-.975l.07.054c.553.398.99.934 1.27 1.554.224.492.369 1.016.429 1.553a7.322 7.322 0 01-.381 3.542 7.588 7.588 0 01-6.965 4.746h-19.072a6.528 6.528 0 01-3.115-.815 4.48 4.48 0 01-1.076-.776c-.11.495-.226.962-.331 1.437 0 .116-.062.165-.195.165h-17.182c-.14 0-.171-.039-.14-.17.032-.133.094-.459.133-.684-.055 0-.07 0-.094.039-.604.546-1.389.85-2.204.854h-8.773a4.14 4.14 0 01-1.158-.147 3.115 3.115 0 01-2.088-1.485c-.047-.094-.07-.04-.11 0-.187.17-.365.35-.552.512a4.401 4.401 0 01-3.01 1.125h-9.103a2.343 2.343 0 01-.91-.179 3.764 3.764 0 01-2.054-2.081c-.123-.31-.22-.63-.288-.956v-.838c.08-.235.137-.476.171-.722a6432.41 6432.41 0 001.769-8.428c0-.155.093-.186.242-.186h7.658c.14 0 .18-.046.203-.171.264-1.196.53-2.393.778-3.588 0-.125 0-.171-.132-.171h-1.558c-.166 0-.172-.054-.14-.18.031-.124.077-.346.112-.519.452-2.128.904-4.248 1.348-6.377a9.71 9.71 0 00.237-1.04zm51.558 19.704H382.3c-.109 0-.125 0-.1-.14.378-1.832.763-3.67 1.152-5.514 0-.187 0-.187-.155-.187h-7.862a8.595 8.595 0 00-1.262.07 5.913 5.913 0 00-3.46 1.65 4.882 4.882 0 00-.778 5.849 3.616 3.616 0 003.209 1.988h9.606c.101 0 .14 0 .156-.132.11-.59.233-1.172.35-1.763.118-.59.227-1.2.352-1.821zm-54.12 3.736h4.432a2.964 2.964 0 002.338-2.253 524.4 524.4 0 001.504-7.153c0-.116 0-.148-.117-.148h-4.675c-.094 0-.14 0-.156.125-.187.878-.39 1.747-.58 2.625-.124.606-.287 1.204-.373 1.815-.025.335-.113.661-.258.963a.58.58 0 01-.538.35h-1.676a.53.53 0 01-.56-.482 1.96 1.96 0 01.038-.776c.331-1.485.608-2.983.927-4.466 0-.109 0-.148-.117-.148h-4.536c-.101 0-.148 0-.172.132-.303 1.476-.615 2.944-.919 4.42-.205.962-.42 1.926-.6 2.896a1.868 1.868 0 00.439 1.448c.344.4.84.636 1.368.652h4.23zm15.666 0h4.028c.24-.003.48-.029.716-.078a2.854 2.854 0 002.174-2.284c.218-.83.358-1.677.53-2.516l.957-4.544c0-.077.047-.147-.093-.147h-4.332c-.082 0-.116 0-.132.116-.11.528-.233 1.064-.35 1.6-.211.978-.421 1.965-.64 2.951a1.394 1.394 0 01-1.49 1.166h-1.89a1.648 1.648 0 01-.585-.093.683.683 0 01-.459-.606 1.3 1.3 0 010-.389c.304-1.553.6-3.044.904-4.566 0-.117 0-.148-.117-.148h-4.31c-.11 0-.148 0-.171.132-.094.52-.195 1.033-.296 1.554-.312 1.553-.621 3.124-.927 4.714a6.28 6.28 0 00-.172 1.049 1.77 1.77 0 00.927 1.608 3.17 3.17 0 001.73.473l3.998.008zm39.103 0h8.07a5.529 5.529 0 004.605-2.26 4.652 4.652 0 001.043-2.664 5 5 0 00-1.043-3.154 3.369 3.369 0 00-2.947-1.501h-8.212c-.14 0-.17.039-.165.17.004.274.028.546.07.816.093.7.385 1.358.842 1.897a2.996 2.996 0 002.337 1.018h3.732a.967.967 0 01.919 1.025 1.106 1.106 0 01-1.09.908h-7.229c-.125 0-.18 0-.203.155-.14.707-.288 1.413-.436 2.12-.086.491-.195.973-.293 1.47zm-47.26-21.483h-3.17c-.101 0-.133.039-.148.125a347.368 347.368 0 00-.943 4.084c0 .117 0 .14.125.14h1.402c.101 0 .156 0 .125.132-.083.35-.148.699-.218 1.056-.304 1.476-.608 2.96-.92 4.435 0 .093 0 .132.11.132h4.76c.093 0 .124 0 .148-.125.264-1.313.538-2.633.778-3.945l1.215-5.87c0-.133 0-.166-.14-.166l-3.124.002zm10.128 10.097h6.653c.117 0 .165 0 .187-.148.07-.412.14-.815.248-1.212a1.867 1.867 0 00-.241-1.553 1.91 1.91 0 00-1.691-.956h-8.568a6.017 6.017 0 00-.646.04 2.747 2.747 0 00-2.337 2.062c-.125.536-.226 1.072-.351 1.615 0 .14 0 .171.148.171l6.598-.019zm17.396 11.386h2.804c.094 0 .148 0 .172-.125.226-1.155.459-2.33.685-3.48 0-.115 0-.131-.117-.131h-1.021c-.101 0-.117 0-.094-.125.382-1.848.78-3.697 1.146-5.553 0-.132 0-.165-.14-.165h-4.276c-.094 0-.133 0-.148.116a10.48 10.48 0 01-.125.621 3058.24 3058.24 0 01-1.792 8.702c0 .125 0 .155.132.155l2.774-.015zm-2.181-11.379h6.069c.125 0 .17 0 .194-.155.14-.776.28-1.485.436-2.22a.988.988 0 00-.35-1.01 2.13 2.13 0 00-1.442-.496h-10.19c-.109 0-.148 0-.17.14-.245 1.19-.504 2.379-.78 3.565 0 .148 0 .186.14.186l6.093-.01zm15.16 0h6.124c.094 0 .166 0 .18-.132.1-.566.21-1.133.32-1.7a1.2 1.2 0 00-.18-.908 2.393 2.393 0 00-1.972-1.112h-9.766c-.082 0-.165 0-.194.125-.258 1.196-.514 2.392-.779 3.588 0 .148 0 .179.14.179l6.127-.04zm-23.706 11.379h4.518c.172 0 .234-.046.265-.21.366-1.77.779-3.534 1.114-5.297.272-1.297.538-2.594.779-3.883 0-.148 0-.18-.148-.18h-4.456c-.132 0-.171.04-.195.156-.17.862-.35 1.724-.522 2.586l-1.005 4.971c-.062.61-.226 1.228-.35 1.857zm44.6-15.272h-7.79c-.33 0-.657.024-.982.07a4.668 4.668 0 00-3.896 3.697c0 .11 0 .125.101.125h11.609c.1 0 .14 0 .165-.125.133-.637.272-1.265.414-1.902.141-.637.238-1.226.379-1.865zM403.738 4166.347c-.132.404-.264.776-.397 1.18-.022.114-.059.225-.109.33a.155.155 0 01-.171.14c-.117 0-.133-.062-.156-.14l-.467-1.402a.096.096 0 00-.063-.11v1.516c0 .093 0 .139-.124.139-.125 0-.14 0-.14-.14v-1.732c0-.109 0-.14.14-.132.28 0 .28 0 .365.264l.42 1.281c0 .043.025.082.063.1l.496-1.514a.359.359 0 01.405-.124v1.897c0 .11-.062.093-.132.093s-.125 0-.125-.109v-1.367a.279.279 0 00-.008-.17h.003zM400.919 4167.092v-.776c0-.082 0-.125-.11-.116-.109.008-.303 0-.451 0-.148 0-.083-.062-.094-.125-.01-.063 0-.1.094-.1h1.389c.1 0 .1.046.1.116s0 .116-.109.109c-.109-.008-.265 0-.397 0s-.156.039-.156.155v1.467c0 .1 0 .155-.132.155s-.148 0-.14-.148c.014-.232.006-.48.006-.737z" fill="#000" fill-rule="nonzero"/><path d="M375.974 4162.137h-1.352a1.82 1.82 0 01-.837-.19.675.675 0 01-.397-.777 1.55 1.55 0 01.156-.505.865.865 0 01.856-.505h3.491c.094 0 .117 0 .094.125-.125.577-.242 1.155-.359 1.74 0 .109-.078.093-.148.093l-1.504.02z" fill="#000" fill-rule="nonzero"/></g></svg>