<?xml version="1.0" encoding="UTF-8"?>
<svg width="91px" height="14px" viewBox="0 0 91 14" version="1.1" xmlns="http://www.w3.org/2000/svg" xmlns:xlink="http://www.w3.org/1999/xlink">
    <title>Nokia</title>
    <defs>
        <filter color-interpolation-filters="auto" id="filter-1">
            <feColorMatrix in="SourceGraphic" type="matrix" values="0 0 0 0 0.090196 0 0 0 0 0.070588 0 0 0 0 0.121569 0 0 0 1.000000 0"></feColorMatrix>
        </filter>
    </defs>
    <g id="UI-elements" stroke="none" stroke-width="1" fill="none" fill-rule="evenodd">
        <g id="Logos" transform="translate(-320.000000, -3939.000000)" filter="url(#filter-1)">
            <g transform="translate(320.000000, 3939.000000)" id="Nokia" fill="#000000" fill-rule="nonzero">
                <polygon id="Path" points="16.3214099 10.4571683 16.3339327 0.195395086 20.5891873 0.177346544 20.6083889 13.8385235 13.2057321 13.8385235 4.32454748 3.53202122 4.30534582 13.8032111 0.0375684627 13.8385235 0 0.195395086 0.0567701214 0.177346544 7.45859212 0.177346544"></polygon>
                <polygon id="Path" points="68.3069788 0.195395086 68.3445473 13.8448012 63.8129558 13.8448012 63.8129558 0.236985205 63.8505243 0.20167284 68.3261805 0.20167284"></polygon>
                <polygon id="Path" points="47.9891194 6.78075879 48.008321 6.79880733 48.5559857 6.36721176 55.8259007 0.195395086 61.8619003 0.195395086 53.5467473 6.81607116 53.5659489 6.88669589 62.9163219 13.8032111 56.3326575 13.8385235 48.0241833 6.8545224 47.9866148 6.90788331 47.9866148 13.8416623 43.4508491 13.8416623 43.4508491 0.195395086 47.9891194 0.195395086 47.9891194 6.78075879"></polygon>
                <path d="M36.3754553,0.035312365 C38.2638967,0.105937095 40.2842451,0.230707451 41.2910799,1.98220075 C41.5237402,2.47558276 41.6336654,3.01232983 41.612499,3.5516392 L41.612499,10.9711594 C41.5036486,11.9800856 40.8628602,12.8701322 39.9068908,13.3402268 C37.9307896,14.144564 35.5389308,13.9319051 33.2414106,13.9970368 C30.5281328,13.9617244 27.739718,14.1273001 25.2159521,13.6949199 C24.0059397,13.4995934 23.0037279,12.7029567 22.5978477,11.6138445 L22.4459042,10.7506533 L22.4792984,2.88148898 C22.6497177,1.85767303 23.3629739,0.985856892 24.371914,0.568136716 C25.8070293,0 27.5510408,0.0706247299 29.2416216,0 L36.3754553,0.035312365 Z M27.475069,3.40960502 C27.0977147,3.48022975 26.6193429,3.62226393 26.5625728,4.00128331 C26.5625728,6.03684497 26.5058027,8.10693428 26.6001413,10.1220932 C26.7320483,10.4650155 27.1352832,10.4297032 27.4182989,10.5183764 L35.5998752,10.5183764 C36.3044926,10.4650155 37.1418519,10.6250983 37.5200411,9.96201051 L37.5200411,4.20060199 L37.463271,3.75095788 C37.3497307,3.48493806 37.0600361,3.44884098 36.8337905,3.37821625 L27.4625462,3.37821625 L27.475069,3.40960502 Z" id="Shape"></path>
                <path d="M90.9682755,13.7851626 L90.9682755,13.8440165 L85.9366061,13.8440165 C85.48328,13.0592973 85.0241099,12.3059668 84.6083522,11.5243865 L84.5140136,11.4890741 L75.6344988,11.4890741 L74.2745204,13.8024264 L69.2395116,13.8448012 L77.1898331,0.195395086 L83.0880818,0.195395086 L91,13.8032111 L90.9682755,13.7851626 Z M80.092623,3.62461808 L77.3042082,8.48987726 L82.8877166,8.48987726 C81.954349,6.86943206 80.9976055,5.22466058 80.092623,3.62461808 Z" id="Shape"></path>
            </g>
        </g>
    </g>
</svg>