<?xml version="1.0" encoding="UTF-8"?>
<svg width="83px" height="31px" viewBox="0 0 83 31" version="1.1" xmlns="http://www.w3.org/2000/svg" xmlns:xlink="http://www.w3.org/1999/xlink">
    <title>Plus_L</title>
    <defs>
        <filter color-interpolation-filters="auto" id="filter-1">
            <feColorMatrix in="SourceGraphic" type="matrix" values="0 0 0 0 0.090196 0 0 0 0 0.070588 0 0 0 0 0.121569 0 0 0 1.000000 0"></feColorMatrix>
        </filter>
    </defs>
    <g id="UI-elements" stroke="none" stroke-width="1" fill="none" fill-rule="evenodd">
        <g id="Logos" transform="translate(-320.000000, -4350.000000)" filter="url(#filter-1)">
            <g transform="translate(320.000000, 3939.000000)">
                <g id="Plus_L" transform="translate(0.000000, 411.000000)" fill="#000000" fill-rule="nonzero">
                    <path d="M70.7576983,17.1002261 C70.7026499,15.9470951 70.7093718,14.7917092 70.7778335,13.6393424 C70.8248157,12.8995786 70.896128,12.1684669 70.9850586,11.5394513 C71.0038647,11.4373379 71.0134142,11.333641 71.0135835,11.2297022 C71.0068717,11.2219152 70.9556947,11.2435457 70.8994839,11.2781546 C70.6788353,11.4148595 70.5513122,11.4235117 70.0076612,11.3335287 C68.8700629,11.0917877 67.7007758,11.0522844 66.5502752,11.2167239 C66.4454042,11.2374892 66.2062984,11.2937285 66.0192086,11.3421809 C65.6820889,11.4530767 65.3292512,11.5045579 64.9755328,11.4944598 C64.6214884,11.4944598 64.5971584,11.4944598 64.5141006,11.4537944 C64.2859013,11.3456418 64.1634121,11.115493 64.1214637,10.7183566 C64.0803773,9.88697777 64.2896109,9.0628392 64.7204866,8.35889922 C64.8675023,8.16399705 65.0429807,7.99382735 65.2406466,7.85447542 C65.9436345,7.4428487 66.7504761,7.25894487 67.5561975,7.32669067 C68.5243662,7.43743895 71.0219731,7.63990064 71.4699819,8.46272572 C71.4959899,8.52242597 71.5228369,8.56136091 71.5303876,8.54924782 C71.5379383,8.53713472 71.5899543,8.34678612 71.6444872,8.11663736 C71.7745272,7.58193084 71.9305752,7.00050239 72.1352833,6.28669514 C72.2348054,5.86391707 72.3718558,5.45148525 72.5446995,5.05462056 C73.0014096,4.18519935 73.9078189,3.67031362 74.8644453,3.73688911 C75.7671745,3.69362807 76.3158594,4.01462502 76.4492553,4.66267549 C76.4821008,4.90476767 76.4843569,5.15023116 76.455967,5.39292193 C76.3513464,5.9466441 76.1720222,6.48252072 75.9232225,6.98492841 C75.5496023,7.88764223 75.193041,8.7969894 74.8535387,9.71296994 C74.0263974,11.8891722 73.4327864,14.152231 73.0833168,16.461693 C73.0621839,16.6826752 73.0054754,16.8984777 72.9155233,17.1002261 C72.4859718,18.0052471 70.9246529,18.1038823 70.7576983,17.1002261 Z M81.1281783,14.3643976 C81.0354999,14.3238733 80.9455326,14.2770484 80.8588696,14.2242318 C80.4704276,13.9897569 79.8227445,13.6428033 79.4326245,13.4602417 C78.6319223,13.0401238 77.7548977,12.7972817 76.8578326,12.7472997 C76.4584592,12.7551995 76.0604551,12.6967713 75.6790829,12.5742555 C75.3049033,12.4375506 75.1404657,12.3146892 75.0649586,12.1148232 C75.0042466,11.886382 74.998487,11.6461155 75.0481792,11.4148595 C75.2627974,10.5702805 75.7413696,9.82220438 76.4098238,9.28641603 C76.7506827,9.05630507 77.1501592,8.93584395 77.5575317,8.94032767 C78.5568029,8.9664136 79.5360524,9.23496735 80.4158947,9.72421781 C80.9303342,9.91052506 81.4147723,10.1753437 81.8530464,10.5098384 C82.0602714,10.6750956 82.1718541,10.7555611 82.5158309,10.9865751 C82.5977518,11.0411512 82.6739482,11.1043638 82.7431911,11.1751933 C83.0661937,11.546373 83.084651,12.121745 82.797724,12.9151525 C82.629674,13.5377066 82.2202753,14.0613217 81.6659566,14.3626671 C81.4909745,14.4216643 81.3023214,14.4216643 81.1273393,14.3626671 L81.1281783,14.3643976 Z" id="Shape"></path>
                    <path d="M0.011745548,8.56309135 C0.847612934,8.21066843 1.71240804,7.93616196 2.59576612,7.74286193 C3.78848681,7.51221769 4.99762459,7.38343987 6.21087801,7.35783862 C7.70599786,7.26872115 9.20419503,7.46585295 10.629721,7.93926707 C11.1811198,8.12488868 11.7100509,8.37513133 12.2061413,8.6850875 C13.051227,9.20734617 13.7778898,9.91042659 14.3371193,10.7469089 C15.1329452,12.0033104 15.5915022,13.4548698 15.6660442,14.953613 C15.6999421,15.5659793 15.6999421,16.1798411 15.6660442,16.7922074 C15.5842274,18.7027858 14.8922528,20.5318761 13.6978259,21.9947808 C13.217226,22.556609 12.6548301,23.0379431 12.0307971,23.42153 C11.2022793,23.9008476 10.3020062,24.2342104 9.36707456,24.4078819 C8.83641101,24.5028372 8.29807694,24.5445626 7.75961242,24.5324737 C7.2567203,24.542384 6.75377531,24.5157849 6.25450433,24.4528734 C5.76286925,24.3862514 5.56571184,24.353373 5.19069327,24.2798292 L5.17559185,31 L0,31 L0.011745548,8.56309135 Z M8.38044853,21.3579782 C8.90096782,21.104997 9.34305828,20.7077856 9.65735739,20.2106952 C10.1978468,19.2969342 10.5052293,18.2569321 10.550858,17.1876134 C10.6808746,15.7689838 10.5922448,14.3380701 10.2882611,12.9480309 C9.98958771,11.4621304 8.79826125,10.3428038 7.33593372,10.1741327 C6.96463175,10.1502502 6.59224759,10.1502502 6.22094562,10.1741327 C5.86734249,10.1980186 5.51976605,10.2804014 5.19153223,10.418125 L5.16971907,21.4929526 L5.21502333,21.5232354 C6.25711762,21.8558895 7.37979153,21.7970337 8.3838044,21.357113 L8.38044853,21.3579782 Z M35.0218684,24.6146697 C33.577155,24.6062576 32.1523278,24.2666848 30.8505209,23.6205309 C30.1961352,23.2584031 29.6369729,22.7375683 29.2212456,22.1029334 C29.0416744,21.797066 28.8881288,21.4757335 28.7623303,21.1425382 C28.6460026,20.795267 28.5600843,20.4379438 28.5056061,20.0748556 L28.4275821,7.66066594 L33.576327,7.66066594 L33.5872336,19.5462056 C33.6885132,20.0774766 33.9533248,20.5608603 34.3423045,20.9245025 C34.722586,21.2030491 35.1698693,21.3682837 35.6351538,21.4021044 C35.8566591,21.4283409 36.0804998,21.4254336 36.3012942,21.3934522 C36.8111372,21.3524831 37.2937472,21.1396558 37.6746843,20.7877976 C37.8240168,20.6477956 37.9466549,20.4802372 38.0362794,20.2937565 C38.1433197,20.0734752 38.2206613,19.8391386 38.2661566,19.5972536 L38.2888087,7.66239638 L43.4425874,7.65807028 L43.4241301,19.4717966 C43.3850496,20.3988026 43.1173737,21.3002155 42.646407,22.0908203 C42.4863117,22.3484605 42.2979815,22.5862319 42.0851376,22.7994362 C41.5627044,23.3227784 40.9368265,23.7235734 40.2503152,23.9744062 C40.0797618,24.0443283 39.9058709,24.1052609 39.7293163,24.1569678 C38.9215807,24.3914569 38.0919084,24.5364797 37.2543615,24.5895783 C36.8533349,24.6224567 35.4455471,24.6380306 35.0193515,24.6146697 L35.0218684,24.6146697 Z M50.7390896,24.5766 C49.4914187,24.5053543 48.2619966,24.2350805 47.0946138,23.7754054 C46.8465504,23.6727028 46.607892,23.547323 46.3814913,23.4007647 L47.6693067,20.4347875 C47.6693067,20.3923916 47.7120941,20.4045047 47.8253547,20.4789137 C49.2515998,21.2255994 52.4765917,22.1704206 53.0999448,19.9156549 C53.148532,19.6627381 53.1595646,19.4036747 53.1326645,19.1473387 C53.0873291,18.7490912 52.9051803,18.3807604 52.6192163,18.1090737 C51.3666375,17.1261827 50.2524883,17.0024561 48.9831302,16.218566 C48.1385555,15.7403056 47.4697253,14.9891397 47.0795124,14.0806051 C46.7224434,13.014151 46.7307348,11.8536775 47.1030035,10.7927656 C47.6374566,9.44341731 48.6939773,8.38551321 50.0175774,7.87437551 C50.9348045,7.51871076 51.9078009,7.34066626 52.8876859,7.34918641 C54.3704809,7.30698535 55.8453397,7.58642682 57.2167594,8.16941584 C57.407205,8.25593793 57.8828997,8.50079545 57.9114246,8.52848251 L56.7368698,11.1630802 C56.7117008,11.2279718 56.6605238,11.2496023 56.6361937,11.213263 C56.4916312,11.110949 56.3402401,11.0192958 56.1831511,10.938988 C55.1420069,10.3612164 53.9154525,10.2534823 52.7945605,10.641352 C52.4695225,10.794019 52.2036171,11.0548385 52.0394896,11.3819811 C51.8180166,11.8501964 51.8063674,12.3949269 52.0076088,12.8727567 C52.3004085,13.5130202 52.8759404,13.9387089 54.158722,14.4673588 C55.3022062,14.8760299 56.3603222,15.5042853 57.277165,16.3189316 C57.9565778,16.9845115 58.3668565,17.8903966 58.4257118,18.8548941 C58.502387,19.6144882 58.3960481,20.3818563 58.1161327,21.0888945 C57.5401805,22.4101488 56.4750872,23.4384592 55.1587715,23.9441235 C54.3017892,24.2989947 53.3956124,24.511309 52.4740748,24.5731391 C52.1384878,24.5990957 51.1375993,24.6025566 50.7399286,24.5800608 L50.7390896,24.5766 Z M19.1687344,24.2685813 L19.1511161,0 L24.3350976,0 L24.3183183,24.3049206 L19.178802,24.3274163 L19.1687344,24.2685813 Z" id="Shape"></path>
                    <path d="M71.2904428,24.6112088 C70.6172705,24.588556 69.9487855,24.4869597 69.2978945,24.3083815 C66.5433251,23.6273368 64.2164246,21.7357711 62.9309685,19.13263 C62.7319077,18.7774592 62.5934257,18.3896922 62.5215522,17.9862123 C62.483586,16.9540831 63.0029352,15.9851386 63.8706123,15.4692847 C64.095151,15.3561993 64.3276462,15.2607539 64.5661166,15.1837618 C64.8026964,15.0826672 65.0736893,15.1203266 65.2758832,15.2823969 C65.4436201,15.5202527 65.5438423,15.8015673 65.5653271,16.0948394 C65.6378084,16.4905477 65.7517367,16.8769702 65.905109,17.2473136 C66.3864164,18.363754 67.1568457,19.3217498 68.1317294,20.0160205 C69.0101785,20.6532999 70.0152896,21.0806938 71.0739891,21.26713 C71.6155704,21.3562398 72.1661241,21.3719469 72.7116541,21.3138519 C73.6236221,21.2694389 74.5261039,21.1027814 75.3963508,20.8180803 C76.2673971,20.4217219 77.0765862,19.8942483 77.7974764,19.2528957 C77.8981525,19.1715649 78.1011827,19.0106338 78.24968,18.8964247 C78.6131029,18.6297291 78.9538369,18.3315921 79.2681868,18.0052471 C79.5068018,17.734177 79.7857569,17.5040297 80.09457,17.3234531 C80.588722,17.1270479 80.7372193,17.7162634 80.6524836,18.05543 C80.556834,18.3615653 80.399595,18.6434278 80.1910513,18.8825811 C78.4510323,21.3778783 76.8536377,22.9733456 75.287285,23.7805967 C74.5004673,24.1925291 73.6476735,24.4537345 72.7703819,24.5515086 C72.2793664,24.6116139 71.7845105,24.6315763 71.2904428,24.6112088 L71.2904428,24.6112088 Z" id="Path"></path>
                </g>
            </g>
        </g>
    </g>
</svg>